<svg xmlns="http://www.w3.org/2000/svg" xmlns:xlink="http://www.w3.org/1999/xlink" width="1920" zoomAndPan="magnify" viewBox="0 0 1440 809.999993" height="1080" preserveAspectRatio="xMidYMid meet" version="1.0"><defs><clipPath id="5ec0e76bed"><path d="M 515 211 L 838.71875 211 L 838.71875 534.847656 L 515 534.847656 Z M 515 211 " clip-rule="nonzero"/></clipPath><clipPath id="afa6ec8e3f"><path d="M 514.71875 210.847656 L 838.71875 210.847656 L 838.71875 534.847656 L 514.71875 534.847656 Z M 514.71875 210.847656 " clip-rule="nonzero"/></clipPath><clipPath id="ef6bec313c"><path d="M 626 257 L 764 257 L 764 534.847656 L 626 534.847656 Z M 626 257 " clip-rule="nonzero"/></clipPath><clipPath id="08fb67eca7"><path d="M 615 247 L 774 247 L 774 534.847656 L 615 534.847656 Z M 615 247 " clip-rule="nonzero"/></clipPath></defs><g clip-path="url(#5ec0e76bed)"><path fill="#4267b2" d="M 838.316406 372.8125 C 838.316406 375.457031 838.253906 378.097656 838.121094 380.738281 C 837.992188 383.382812 837.796875 386.019531 837.539062 388.648438 C 837.28125 391.28125 836.957031 393.90625 836.566406 396.523438 C 836.179688 399.136719 835.726562 401.742188 835.210938 404.335938 C 834.695312 406.929688 834.117188 409.511719 833.472656 412.078125 C 832.832031 414.640625 832.125 417.191406 831.359375 419.722656 C 830.589844 422.25 829.761719 424.761719 828.871094 427.253906 C 827.980469 429.742188 827.027344 432.210938 826.015625 434.652344 C 825.003906 437.097656 823.933594 439.511719 822.800781 441.902344 C 821.671875 444.292969 820.484375 446.65625 819.234375 448.988281 C 817.988281 451.320312 816.6875 453.621094 815.328125 455.890625 C 813.964844 458.15625 812.550781 460.390625 811.082031 462.589844 C 809.613281 464.789062 808.089844 466.953125 806.515625 469.074219 C 804.941406 471.199219 803.3125 473.285156 801.636719 475.328125 C 799.957031 477.375 798.230469 479.375 796.453125 481.335938 C 794.679688 483.292969 792.855469 485.210938 790.984375 487.078125 C 789.117188 488.949219 787.199219 490.773438 785.242188 492.546875 C 783.28125 494.324219 781.28125 496.050781 779.234375 497.730469 C 777.191406 499.40625 775.105469 501.035156 772.980469 502.609375 C 770.859375 504.183594 768.695312 505.707031 766.496094 507.175781 C 764.296875 508.644531 762.066406 510.058594 759.796875 511.417969 C 757.527344 512.78125 755.226562 514.082031 752.894531 515.328125 C 750.5625 516.574219 748.199219 517.765625 745.808594 518.894531 C 743.417969 520.027344 741.003906 521.097656 738.558594 522.109375 C 736.117188 523.121094 733.648438 524.074219 731.160156 524.964844 C 728.667969 525.855469 726.15625 526.683594 723.628906 527.453125 C 721.097656 528.21875 718.546875 528.925781 715.984375 529.566406 C 713.417969 530.210938 710.835938 530.789062 708.242188 531.304688 C 705.648438 531.820312 703.046875 532.273438 700.429688 532.660156 C 697.8125 533.050781 695.1875 533.375 692.558594 533.632812 C 689.925781 533.890625 687.289062 534.085938 684.648438 534.214844 C 682.003906 534.347656 679.363281 534.410156 676.71875 534.410156 C 674.074219 534.410156 671.429688 534.347656 668.789062 534.214844 C 666.144531 534.085938 663.507812 533.890625 660.878906 533.632812 C 658.246094 533.375 655.621094 533.050781 653.003906 532.660156 C 650.390625 532.273438 647.785156 531.820312 645.191406 531.304688 C 642.597656 530.789062 640.015625 530.210938 637.453125 529.566406 C 634.886719 528.925781 632.339844 528.21875 629.808594 527.453125 C 627.277344 526.683594 624.765625 525.855469 622.277344 524.964844 C 619.785156 524.074219 617.320312 523.121094 614.875 522.109375 C 612.433594 521.097656 610.015625 520.027344 607.625 518.894531 C 605.234375 517.765625 602.871094 516.574219 600.539062 515.328125 C 598.207031 514.082031 595.90625 512.78125 593.636719 511.417969 C 591.371094 510.058594 589.136719 508.644531 586.9375 507.175781 C 584.738281 505.707031 582.578125 504.183594 580.453125 502.609375 C 578.328125 501.035156 576.242188 499.40625 574.199219 497.730469 C 572.15625 496.050781 570.152344 494.324219 568.195312 492.546875 C 566.234375 490.773438 564.320312 488.949219 562.449219 487.078125 C 560.578125 485.210938 558.753906 483.292969 556.980469 481.335938 C 555.203125 479.375 553.476562 477.375 551.796875 475.328125 C 550.121094 473.285156 548.496094 471.199219 546.917969 469.074219 C 545.34375 466.953125 543.820312 464.789062 542.351562 462.589844 C 540.882812 460.390625 539.46875 458.15625 538.109375 455.890625 C 536.75 453.621094 535.445312 451.320312 534.199219 448.988281 C 532.953125 446.65625 531.761719 444.292969 530.632812 441.902344 C 529.5 439.511719 528.429688 437.097656 527.417969 434.652344 C 526.40625 432.210938 525.453125 429.742188 524.5625 427.253906 C 523.671875 424.761719 522.84375 422.25 522.074219 419.722656 C 521.308594 417.191406 520.601562 414.640625 519.960938 412.078125 C 519.316406 409.511719 518.738281 406.929688 518.222656 404.335938 C 517.707031 401.742188 517.253906 399.136719 516.867188 396.523438 C 516.476562 393.90625 516.15625 391.28125 515.894531 388.648438 C 515.636719 386.019531 515.441406 383.382812 515.3125 380.738281 C 515.183594 378.097656 515.117188 375.457031 515.117188 372.8125 C 515.117188 370.167969 515.183594 367.523438 515.3125 364.882812 C 515.441406 362.238281 515.636719 359.601562 515.894531 356.972656 C 516.15625 354.339844 516.476562 351.714844 516.867188 349.097656 C 517.253906 346.484375 517.707031 343.878906 518.222656 341.285156 C 518.738281 338.691406 519.316406 336.109375 519.960938 333.546875 C 520.601562 330.980469 521.308594 328.429688 522.074219 325.902344 C 522.84375 323.371094 523.671875 320.859375 524.5625 318.371094 C 525.453125 315.878906 526.40625 313.414062 527.417969 310.96875 C 528.429688 308.527344 529.5 306.109375 530.632812 303.71875 C 531.761719 301.328125 532.953125 298.964844 534.199219 296.632812 C 535.445312 294.300781 536.75 292 538.109375 289.730469 C 539.46875 287.464844 540.882812 285.230469 542.351562 283.03125 C 543.820312 280.832031 545.34375 278.671875 546.917969 276.546875 C 548.496094 274.421875 550.121094 272.335938 551.796875 270.292969 C 553.476562 268.25 555.203125 266.246094 556.980469 264.285156 C 558.753906 262.328125 560.578125 260.414062 562.449219 258.542969 C 564.320312 256.671875 566.234375 254.847656 568.195312 253.074219 C 570.152344 251.296875 572.15625 249.570312 574.199219 247.890625 C 576.242188 246.214844 578.328125 244.589844 580.453125 243.011719 C 582.578125 241.4375 584.738281 239.914062 586.9375 238.445312 C 589.136719 236.976562 591.371094 235.5625 593.636719 234.203125 C 595.90625 232.84375 598.207031 231.539062 600.539062 230.292969 C 602.871094 229.046875 605.234375 227.855469 607.625 226.726562 C 610.015625 225.59375 612.433594 224.523438 614.875 223.511719 C 617.320312 222.5 619.785156 221.546875 622.277344 220.65625 C 624.765625 219.765625 627.277344 218.9375 629.808594 218.167969 C 632.339844 217.402344 634.886719 216.695312 637.453125 216.054688 C 640.015625 215.410156 642.597656 214.832031 645.191406 214.316406 C 647.785156 213.800781 650.390625 213.347656 653.003906 212.960938 C 655.621094 212.570312 658.246094 212.25 660.878906 211.988281 C 663.507812 211.730469 666.144531 211.535156 668.789062 211.40625 C 671.429688 211.277344 674.074219 211.210938 676.71875 211.210938 C 679.363281 211.210938 682.003906 211.277344 684.648438 211.40625 C 687.289062 211.535156 689.925781 211.730469 692.558594 211.988281 C 695.1875 212.25 697.8125 212.570312 700.429688 212.960938 C 703.046875 213.347656 705.648438 213.800781 708.242188 214.316406 C 710.835938 214.832031 713.417969 215.410156 715.984375 216.054688 C 718.546875 216.695312 721.097656 217.402344 723.628906 218.167969 C 726.15625 218.9375 728.667969 219.765625 731.160156 220.65625 C 733.648438 221.546875 736.117188 222.5 738.558594 223.511719 C 741.003906 224.523438 743.417969 225.59375 745.808594 226.726562 C 748.199219 227.855469 750.5625 229.046875 752.894531 230.292969 C 755.226562 231.539062 757.527344 232.84375 759.796875 234.203125 C 762.066406 235.5625 764.296875 236.976562 766.496094 238.445312 C 768.695312 239.914062 770.859375 241.4375 772.980469 243.011719 C 775.105469 244.589844 777.191406 246.214844 779.234375 247.890625 C 781.28125 249.570312 783.28125 251.296875 785.242188 253.074219 C 787.199219 254.847656 789.117188 256.671875 790.984375 258.542969 C 792.855469 260.414062 794.679688 262.328125 796.453125 264.285156 C 798.230469 266.246094 799.957031 268.25 801.636719 270.292969 C 803.3125 272.335938 804.941406 274.421875 806.515625 276.546875 C 808.089844 278.671875 809.613281 280.832031 811.082031 283.03125 C 812.550781 285.230469 813.964844 287.464844 815.328125 289.730469 C 816.6875 292 817.988281 294.300781 819.234375 296.632812 C 820.484375 298.964844 821.671875 301.328125 822.800781 303.71875 C 823.933594 306.109375 825.003906 308.527344 826.015625 310.96875 C 827.027344 313.414062 827.980469 315.878906 828.871094 318.371094 C 829.761719 320.859375 830.589844 323.371094 831.359375 325.902344 C 832.125 328.429688 832.832031 330.980469 833.472656 333.546875 C 834.117188 336.109375 834.695312 338.691406 835.210938 341.285156 C 835.726562 343.878906 836.179688 346.484375 836.566406 349.097656 C 836.957031 351.714844 837.28125 354.339844 837.539062 356.972656 C 837.796875 359.601562 837.992188 362.238281 838.121094 364.882812 C 838.253906 367.523438 838.316406 370.167969 838.316406 372.8125 Z M 838.316406 372.8125 " fill-opacity="1" fill-rule="nonzero"/></g><g clip-path="url(#afa6ec8e3f)"><path stroke-linecap="butt" transform="matrix(0.727273, 0, 0, 0.727273, 501.808229, 202.192599)" fill="none" stroke-linejoin="miter" d="M 462.698772 234.602379 C 462.698772 238.238609 462.612834 241.869469 462.430217 245.500328 C 462.252971 249.136559 461.984416 252.762048 461.629924 256.376794 C 461.275432 259.996911 460.829631 263.606287 460.292522 267.20492 C 459.760783 270.798181 459.137736 274.380701 458.428752 277.947108 C 457.719767 281.513514 456.924846 285.063807 456.038615 288.592616 C 455.157756 292.116054 454.185588 295.623378 453.132853 299.103847 C 452.074748 302.578945 450.936076 306.032559 449.711466 309.459317 C 448.486857 312.880704 447.17631 316.275235 445.785196 319.632169 C 444.394083 322.994474 442.922403 326.31381 441.364786 329.600919 C 439.81254 332.888029 438.179727 336.137541 436.460977 339.344084 C 434.747598 342.550627 432.959024 345.714202 431.089883 348.834807 C 429.215371 351.950042 427.271035 355.022308 425.251504 358.046234 C 423.231972 361.07016 421.137246 364.045746 418.972695 366.96225 C 416.808144 369.884125 414.568398 372.752289 412.264198 375.561371 C 409.954628 378.375825 407.580604 381.125825 405.136756 383.822114 C 402.69828 386.513032 400.189979 389.150239 397.617225 391.717622 C 395.049842 394.290376 392.412635 396.798677 389.721716 399.237154 C 387.025427 401.681002 384.275427 404.055025 381.460974 406.364596 C 378.651892 408.668795 375.783727 410.908542 372.861852 413.073092 C 369.945348 415.237643 366.969762 417.33237 363.945836 419.351901 C 360.92191 421.371433 357.855015 423.315769 354.73441 425.18491 C 351.613804 427.059421 348.45023 428.847996 345.243686 430.561375 C 342.037143 432.274754 338.787631 433.912937 335.500522 435.465184 C 332.213412 437.022801 328.894076 438.494481 325.531771 439.885594 C 322.174837 441.276707 318.780306 442.587254 315.358919 443.811864 C 311.932161 445.036473 308.478548 446.175145 305.00345 447.233251 C 301.522981 448.285985 298.015656 449.258153 294.492219 450.139013 C 290.96341 451.025243 287.413117 451.820165 283.84671 452.529149 C 280.280304 453.238134 276.703155 453.861181 273.104522 454.392919 C 269.505889 454.930029 265.896514 455.375829 262.281767 455.730322 C 258.66165 456.084814 255.036161 456.353368 251.405302 456.530615 C 247.769071 456.713232 244.138212 456.799169 240.501981 456.799169 C 236.86575 456.799169 233.22952 456.713232 229.59866 456.530615 C 225.962429 456.353368 222.336941 456.084814 218.722194 455.730322 C 215.102077 455.375829 211.492702 454.930029 207.894069 454.392919 C 204.300807 453.861181 200.718287 453.238134 197.151881 452.529149 C 193.585474 451.820165 190.035181 451.025243 186.511743 450.139013 C 182.982934 449.258153 179.480981 448.285985 176.000512 447.233251 C 172.520043 446.175145 169.06643 445.036473 165.645043 443.811864 C 162.218285 442.587254 158.829124 441.276707 155.46682 439.885594 C 152.109886 438.494481 148.785179 437.022801 145.498069 435.465184 C 142.210959 433.912937 138.961447 432.274754 135.754904 430.561375 C 132.548361 428.847996 129.384787 427.059421 126.264181 425.18491 C 123.148946 423.315769 120.076681 421.371433 117.052755 419.351901 C 114.028829 417.33237 111.058614 415.237643 108.136739 413.073092 C 105.214863 410.908542 102.346699 408.668795 99.537617 406.364596 C 96.728535 404.055025 93.973163 401.681002 91.282245 399.237154 C 88.585956 396.798677 85.95412 394.290376 83.381366 391.717622 C 80.808612 389.150239 78.300311 386.513032 75.861834 383.822114 C 73.417986 381.125825 71.043963 378.375825 68.734392 375.561371 C 66.430193 372.752289 64.195818 369.884125 62.025896 366.96225 C 59.861345 364.045746 57.766618 361.07016 55.747087 358.046234 C 53.727556 355.022308 51.78322 351.950042 49.914079 348.834807 C 48.044938 345.714202 46.250993 342.550627 44.537614 339.344084 C 42.824235 336.137541 41.186051 332.888029 39.633805 329.600919 C 38.076187 326.31381 36.604508 322.994474 35.213394 319.632169 C 33.822281 316.275235 32.511734 312.880704 31.287125 309.459317 C 30.062515 306.032559 28.923843 302.578945 27.865738 299.103847 C 26.813003 295.623378 25.840835 292.116054 24.959976 288.592616 C 24.073745 285.063807 23.278823 281.513514 22.569839 277.947108 C 21.860854 274.380701 21.237808 270.798181 20.706069 267.20492 C 20.16896 263.606287 19.72853 259.996911 19.368667 256.376794 C 19.014175 252.762048 18.74562 249.136559 18.568374 245.500328 C 18.391128 241.869469 18.299819 238.238609 18.299819 234.602379 C 18.299819 230.966148 18.391128 227.329917 18.568374 223.699058 C 18.74562 220.062827 19.014175 216.437338 19.368667 212.822592 C 19.72853 209.202475 20.16896 205.593099 20.706069 201.994466 C 21.237808 198.401204 21.860854 194.818685 22.569839 191.252278 C 23.278823 187.685872 24.073745 184.135579 24.959976 180.612141 C 25.840835 177.083332 26.813003 173.576008 27.865738 170.10091 C 28.923843 166.620441 30.062515 163.166827 31.287125 159.74544 C 32.511734 156.318682 33.822281 152.929522 35.213394 149.567217 C 36.604508 146.210283 38.076187 142.885576 39.633805 139.598467 C 41.186051 136.311357 42.824235 133.061845 44.537614 129.855302 C 46.250993 126.648759 48.044938 123.485184 49.914079 120.364579 C 51.78322 117.249344 53.727556 114.177078 55.747087 111.153152 C 57.766618 108.129226 59.861345 105.159011 62.025896 102.237136 C 64.195818 99.315261 66.430193 96.447097 68.734392 93.638015 C 71.043963 90.828932 73.417986 88.073561 75.861834 85.377272 C 78.300311 82.686354 80.808612 80.054518 83.381366 77.481764 C 85.95412 74.90901 88.585956 72.400709 91.282245 69.962232 C 93.973163 67.518384 96.728535 65.144361 99.537617 62.83479 C 102.346699 60.530591 105.214863 58.296216 108.136739 56.126294 C 111.058614 53.961743 114.028829 51.867016 117.052755 49.847485 C 120.076681 47.827953 123.148946 45.883617 126.264181 44.014476 C 129.384787 42.145336 132.548361 40.35139 135.754904 38.638011 C 138.961447 36.924632 142.210959 35.286449 145.498069 33.734202 C 148.785179 32.176585 152.109886 30.704905 155.46682 29.313792 C 158.829124 27.922679 162.218285 26.612132 165.645043 25.387522 C 169.06643 24.162913 172.520043 23.024241 176.000512 21.966135 C 179.480981 20.913401 182.982934 19.941233 186.511743 19.060373 C 190.035181 18.174143 193.585474 17.379221 197.151881 16.670236 C 200.718287 15.961252 204.300807 15.338205 207.894069 14.806467 C 211.492702 14.269357 215.102077 13.828928 218.722194 13.469064 C 222.336941 13.114572 225.962429 12.846018 229.59866 12.668771 C 233.22952 12.491525 236.86575 12.400217 240.501981 12.400217 C 244.138212 12.400217 247.769071 12.491525 251.405302 12.668771 C 255.036161 12.846018 258.66165 13.114572 262.281767 13.469064 C 265.896514 13.828928 269.505889 14.269357 273.104522 14.806467 C 276.703155 15.338205 280.280304 15.961252 283.84671 16.670236 C 287.413117 17.379221 290.96341 18.174143 294.492219 19.060373 C 298.015656 19.941233 301.522981 20.913401 305.00345 21.966135 C 308.478548 23.024241 311.932161 24.162913 315.358919 25.387522 C 318.780306 26.612132 322.174837 27.922679 325.531771 29.313792 C 328.894076 30.704905 332.213412 32.176585 335.500522 33.734202 C 338.787631 35.286449 342.037143 36.924632 345.243686 38.638011 C 348.45023 40.35139 351.613804 42.145336 354.73441 44.014476 C 357.855015 45.883617 360.92191 47.827953 363.945836 49.847485 C 366.969762 51.867016 369.945348 53.961743 372.861852 56.126294 C 375.783727 58.296216 378.651892 60.530591 381.460974 62.83479 C 384.275427 65.144361 387.025427 67.518384 389.721716 69.962232 C 392.412635 72.400709 395.049842 74.90901 397.617225 77.481764 C 400.189979 80.054518 402.69828 82.686354 405.136756 85.377272 C 407.580604 88.073561 409.954628 90.828932 412.264198 93.638015 C 414.568398 96.447097 416.808144 99.315261 418.972695 102.237136 C 421.137246 105.159011 423.231972 108.129226 425.251504 111.153152 C 427.271035 114.177078 429.215371 117.249344 431.089883 120.364579 C 432.959024 123.485184 434.747598 126.648759 436.460977 129.855302 C 438.179727 133.061845 439.81254 136.311357 441.364786 139.598467 C 442.922403 142.885576 444.394083 146.210283 445.785196 149.567217 C 447.17631 152.929522 448.486857 156.318682 449.711466 159.74544 C 450.936076 163.166827 452.074748 166.620441 453.132853 170.10091 C 454.185588 173.576008 455.157756 177.083332 456.038615 180.612141 C 456.924846 184.135579 457.719767 187.685872 458.428752 191.252278 C 459.137736 194.818685 459.760783 198.401204 460.292522 201.994466 C 460.829631 205.593099 461.275432 209.202475 461.629924 212.822592 C 461.984416 216.437338 462.252971 220.062827 462.430217 223.699058 C 462.612834 227.329917 462.698772 230.966148 462.698772 234.602379 Z M 462.698772 234.602379 " stroke="#4267b2" stroke-width="1" stroke-opacity="1" stroke-miterlimit="10"/></g><g clip-path="url(#ef6bec313c)"><path fill="#ffffff" d="M 714.679688 258.917969 C 701.808594 261.246094 697.371094 263.429688 689.953125 267.648438 C 682.027344 272.15625 676.5 276.882812 672.71875 280.738281 C 660.355469 293.539062 657.589844 305.464844 655.261719 314.703125 C 651.773438 328.300781 652.136719 341.101562 652.136719 341.101562 L 652.136719 351.066406 L 626.171875 351.066406 L 626.171875 396.230469 L 652.136719 396.230469 L 652.136719 532.59375 C 660.136719 533.828125 668.355469 534.484375 676.71875 534.484375 C 689.082031 534.484375 701.152344 533.101562 712.71875 530.484375 L 712.71875 396.230469 L 752.207031 396.230469 L 752.207031 351.066406 L 712.71875 351.066406 L 712.71875 341.464844 C 712.71875 341.464844 712.71875 339.71875 712.71875 339.5 C 712.71875 339.285156 712.71875 338.992188 712.71875 338.773438 C 712.71875 336.8125 712.789062 333.902344 713.226562 331.355469 C 714.316406 324.738281 716.570312 319.574219 720.355469 314.992188 C 724.71875 309.757812 729.808594 307.5 735.480469 306.628906 C 749.515625 304.445312 761.226562 309.320312 761.226562 309.320312 L 763.40625 261.828125 C 763.40625 261.828125 754.609375 258.992188 740.0625 257.972656 C 729.808594 257.246094 720.71875 257.828125 714.679688 258.917969 Z M 714.679688 258.917969 " fill-opacity="1" fill-rule="nonzero"/></g><g clip-path="url(#08fb67eca7)"><path stroke-linecap="butt" transform="matrix(0.727273, 0, 0, 0.727273, 501.808229, 202.192599)" fill="none" stroke-linejoin="miter" d="M 292.698273 77.997389 C 275.000518 81.198561 268.898955 84.201002 258.699248 90.001784 C 247.801298 96.200026 240.2012 102.69905 235.001981 108.00032 C 218.002468 125.601395 214.199733 141.999346 210.998561 154.701983 C 206.202174 173.398762 206.701686 190.999837 206.701686 190.999837 L 206.701686 204.701498 L 171.000024 204.701498 L 171.000024 266.802088 L 206.701686 266.802088 L 206.701686 454.301611 C 217.701687 455.998876 229.002468 456.90122 240.501981 456.90122 C 257.501494 456.90122 274.098174 454.999853 290.001984 451.40122 L 290.001984 266.802088 L 344.298374 266.802088 L 344.298374 204.701498 L 290.001984 204.701498 L 290.001984 191.499349 C 290.001984 191.499349 290.001984 189.09847 290.001984 188.797688 C 290.001984 188.502278 290.001984 188.099446 290.001984 187.798665 C 290.001984 185.102376 290.098664 181.10091 290.700226 177.598957 C 292.198761 168.500324 295.297883 161.399737 300.502473 155.099444 C 306.501985 147.902178 313.50052 144.797686 321.299349 143.599932 C 340.59769 140.59749 356.70023 147.300615 356.70023 147.300615 L 359.697301 81.998854 C 359.697301 81.998854 347.601597 78.099439 327.599642 76.697584 C 313.50052 75.69856 301.001985 76.498853 292.698273 77.997389 Z M 292.698273 77.997389 " stroke="#ffffff" stroke-width="1" stroke-opacity="1" stroke-miterlimit="10"/></g></svg>